<svg id="Capa_1" xmlns="http://www.w3.org/2000/svg" width="1200" height="900" viewBox="0 0 1200 900"><g fill="#F68E4D"><path d="M1031.633 352.583h-86.438V151.531c0-10.143-8.226-18.368-18.368-18.368h-758.46c-10.144 0-18.367 8.225-18.367 18.368v508.318c0 10.143 8.223 18.367 18.367 18.367h313.481v51.886h-41.645c-10.145 0-18.367 8.226-18.367 18.368 0 10.144 8.223 18.367 18.367 18.367h226.939c10.145 0 18.367-8.224 18.367-18.367s-8.223-18.368-18.367-18.368h-41.643v-51.886h105.558v70.254c0 10.144 8.225 18.367 18.367 18.367h282.207c10.143 0 18.367-8.224 18.367-18.367V370.95c.002-10.143-8.223-18.367-18.365-18.367zm-18.367 288.898H767.793V389.318h245.473v252.163zM908.459 169.898v182.685H749.424c-10.143 0-18.367 8.224-18.367 18.367v128.656H186.735V169.898h721.724zM588.767 730.102h-70.184v-51.886h70.184v51.886zm-402.032-88.621v-105.14h544.324v105.141H186.735zm581.058 88.621v-51.886h245.473v51.886H767.793z"/><circle cx="890.529" cy="704.158" r="12.273"/><circle cx="547.598" cy="585.153" r="15.342"/></g></svg>