<svg id="Layer_1" xmlns="http://www.w3.org/2000/svg" width="1200" height="900" viewBox="0 0 1200 900"><g fill="#F68E4D"><path d="M978.191 435.639H830.686c-1.17-71.69-11.072-140.967-28.285-202.393h96.736c7.934 0 14.362-6.428 14.362-14.362s-6.429-14.362-14.362-14.362H793.604c-15.354-46.273-35.073-87.167-58.506-119.979-4.611-6.455-13.582-7.953-20.033-3.341-6.455 4.609-7.951 13.58-3.342 20.034 20.332 28.47 37.7 63.572 51.635 103.287H614.361V71.809c0-7.934-6.428-14.362-14.361-14.362s-14.361 6.428-14.361 14.362v132.713H436.641c13.935-39.715 31.303-74.817 51.635-103.287 4.609-6.454 3.113-15.425-3.342-20.034-6.457-4.609-15.424-3.112-20.033 3.341-23.433 32.812-43.152 73.708-58.506 119.979H300.861c-7.934 0-14.362 6.428-14.362 14.362s6.428 14.362 14.362 14.362h96.736c-17.211 61.426-27.113 130.703-28.285 202.393H221.809c-7.934 0-14.362 6.428-14.362 14.361s6.428 14.361 14.362 14.361h147.506c1.17 71.69 11.072 140.967 28.285 202.394h-96.738c-7.934 0-14.362 6.428-14.362 14.361s6.428 14.361 14.362 14.361h105.533c15.355 46.281 35.081 87.184 58.52 119.999a14.348 14.348 0 0 0 11.7 6.017c2.888 0 5.804-.869 8.335-2.675 6.453-4.611 7.949-13.581 3.34-20.036-20.338-28.473-37.71-63.582-51.648-103.303H585.64V828.19c0 7.934 6.428 14.361 14.361 14.361s14.361-6.428 14.361-14.361V695.478H763.36c-13.937 39.723-31.311 74.83-51.648 103.303-4.609 6.455-3.113 15.425 3.34 20.036a14.297 14.297 0 0 0 8.335 2.675c4.483 0 8.897-2.093 11.7-6.017 23.438-32.815 43.162-73.718 58.52-119.999H899.14c7.934 0 14.362-6.428 14.362-14.361s-6.429-14.361-14.362-14.361H802.4c17.213-61.427 27.115-130.703 28.285-202.394h147.506c7.934 0 14.361-6.428 14.361-14.361s-6.427-14.36-14.361-14.36zM772.608 233.246c17.833 60.669 28.14 130.132 29.348 202.393H614.361V233.246h158.247zm-345.216 0h158.247v202.393H398.044c1.21-72.263 11.515-141.724 29.348-202.393zm0 433.509c-17.833-60.67-28.14-130.133-29.348-202.394h187.595v202.394H427.392zm345.216 0H614.361V464.361h187.595c-1.21 72.263-11.515 141.726-29.348 202.394z"/><path d="M918.198 131.802C833.203 46.808 720.2 0 600 0S366.797 46.808 281.802 131.802 150 329.8 150 450.002c0 88.604 25.643 174.062 74.229 247.626l-54.992 164.965a14.366 14.366 0 0 0 3.47 14.698 14.372 14.372 0 0 0 14.698 3.47l164.968-54.987C425.94 874.357 511.396 900 600 900c120.2 0 233.203-46.808 318.197-131.802C1003.192 683.203 1050 570.2 1050 450.002c0-120.202-46.808-233.205-131.802-318.2zM600 871.276c-85.195 0-167.275-25.318-237.372-73.216a14.369 14.369 0 0 0-12.644-1.768L205.57 844.428l48.14-144.41a14.374 14.374 0 0 0-1.767-12.646c-47.901-70.093-73.22-152.175-73.22-237.37 0-232.294 188.982-421.278 421.276-421.278s421.276 188.984 421.276 421.278c.001 232.292-188.981 421.274-421.275 421.274z"/></g></svg>