<?xml version="1.0" encoding="utf-8"?>
<!-- Generator: Adobe Illustrator 16.0.0, SVG Export Plug-In . SVG Version: 6.00 Build 0)  -->
<!DOCTYPE svg PUBLIC "-//W3C//DTD SVG 1.1//EN" "http://www.w3.org/Graphics/SVG/1.1/DTD/svg11.dtd">
<svg version="1.1" id="Layer_1" xmlns="http://www.w3.org/2000/svg" xmlns:xlink="http://www.w3.org/1999/xlink" x="0px" y="0px"
	 width="841.891px" height="340px" viewBox="872 126.14 841.891 340" enable-background="new 872 126.14 841.891 340"
	 xml:space="preserve">
<g>
	<g>
		<polygon fill="#FFFFFF" points="1112.541,315.384 1029.152,315.384 1109.332,235.204 1200.738,327.41 1292.945,235.204 
			1417.224,359.482 1339.449,359.482 1292.142,312.175 1200.738,404.382 		"/>
		<polygon fill="#FFFFFF" points="970.621,451.689 892.044,451.689 973.828,370.707 1051.603,370.707 		"/>
		<polygon fill="#FFFFFF" points="1472.548,414.005 1508.628,451.689 1430.855,451.689 1395.576,414.005 		"/>
	</g>
	<g>
		<polygon fill="#FFFFFF" points="1188.71,140.591 1006.703,324.203 1106.125,324.203 1141.404,359.482 892.044,359.482 
			1112.541,140.591 		"/>
		<polygon fill="#FFFFFF" points="1213.566,404.382 1554.332,404.382 1519.855,370.707 1337.044,370.707 1292.945,325.005 		"/>
		<polygon fill="#FFFFFF" points="1693.845,186.293 1430.855,186.293 1345.062,272.888 1385.953,313.779 1474.953,313.779 
			1511.835,276.897 1422.835,276.897 1477.359,222.375 1658.566,222.375 		"/>
	</g>
</g>
</svg>
