<?xml version="1.0" encoding="utf-8"?>
<!-- Generator: Adobe Illustrator 16.0.0, SVG Export Plug-In . SVG Version: 6.00 Build 0)  -->
<!DOCTYPE svg PUBLIC "-//W3C//DTD SVG 1.1//EN" "http://www.w3.org/Graphics/SVG/1.1/DTD/svg11.dtd">
<svg version="1.1" id="Layer_1" xmlns="http://www.w3.org/2000/svg" xmlns:xlink="http://www.w3.org/1999/xlink" x="0px" y="0px"
	 width="841.89px" height="340px" viewBox="0 126.14 841.89 340" enable-background="new 0 126.14 841.89 340" xml:space="preserve"
	>
<g>
	<g>
		<polygon fill="#3298CB" points="240.541,315.384 157.152,315.384 237.332,235.204 328.738,327.41 420.945,235.204 
			545.224,359.482 467.449,359.482 420.142,312.175 328.738,404.382 		"/>
		<polygon fill="#3298CB" points="98.621,451.689 20.044,451.689 101.828,370.707 179.603,370.707 		"/>
		<polygon fill="#3298CB" points="600.548,414.005 636.628,451.689 558.855,451.689 523.576,414.005 		"/>
	</g>
	<g>
		<polygon fill="#F58538" points="316.71,140.591 134.703,324.203 234.125,324.203 269.404,359.482 20.044,359.482 240.541,140.591 
					"/>
		<polygon fill="#F58538" points="341.566,404.382 682.332,404.382 647.855,370.707 465.044,370.707 420.945,325.005 		"/>
		<polygon fill="#F58538" points="821.845,186.293 558.855,186.293 473.062,272.888 513.953,313.779 602.953,313.779 
			639.835,276.897 550.835,276.897 605.359,222.375 786.566,222.375 		"/>
	</g>
</g>
</svg>
