<?xml version="1.0" encoding="utf-8"?>
<!-- Generator: Adobe Illustrator 19.0.0, SVG Export Plug-In . SVG Version: 6.00 Build 0)  -->
<svg version="1.1" id="Capa_1" xmlns="http://www.w3.org/2000/svg" xmlns:xlink="http://www.w3.org/1999/xlink" x="0px" y="0px"
	 viewBox="294 -54 1200 900" style="enable-background:new 294 -54 1200 900;" xml:space="preserve">
<style type="text/css">
	.st0{fill:#F68E4D;}
</style>
<g>
	<g>
		<g>
			<g>
				<g>
					<path class="st0" d="M739,90.7c0-11.8-9.6-21.3-21.3-21.3H702c-11.8,0-21.3,9.6-21.3,21.3v33.8c0,11.8,9.6,21.3,21.3,21.3h15.6
						c11.8,0,21.3-9.6,21.3-21.3L739,90.7L739,90.7z M718.7,124.5L718.7,124.5c0,0.6-0.5,1-1,1H702c-0.6,0-1-0.5-1-1V90.7
						c0-0.6,0.5-1,1-1h15.6c0.6,0,1,0.5,1,1L718.7,124.5L718.7,124.5z"/>
				</g>
			</g>
			<g>
				<g>
					<path class="st0" d="M853.2,69.4h-15.6c-11.8,0-21.3,9.6-21.3,21.3v33.8c0,11.8,9.6,21.3,21.3,21.3h15.6
						c11.8,0,21.3-9.6,21.3-21.3V90.7C874.5,79,864.9,69.4,853.2,69.4z M854.2,124.5c0,0.6-0.5,1-1,1h-15.6c-0.6,0-1-0.5-1-1V90.7
						c0-0.6,0.5-1,1-1h15.6c0.6,0,1,0.5,1,1V124.5z"/>
				</g>
			</g>
			<g>
				<g>
					<path class="st0" d="M1019.1,69.4h-15.6c-11.8,0-21.3,9.6-21.3,21.3v33.8c0,11.8,9.6,21.3,21.3,21.3h15.6
						c11.8,0,21.3-9.6,21.3-21.3V90.7C1040.4,79,1030.8,69.4,1019.1,69.4z M1020.1,124.5c0,0.6-0.5,1-1,1h-15.6c-0.6,0-1-0.5-1-1
						V90.7c0-0.6,0.5-1,1-1h15.6c0.6,0,1,0.5,1,1V124.5z"/>
				</g>
			</g>
			<g>
				<g>
					<path class="st0" d="M921.3,69.4h-15.6c-11.8,0-21.3,9.6-21.3,21.3v33.8c0,11.8,9.6,21.3,21.3,21.3h15.6
						c11.8,0,21.3-9.6,21.3-21.3V90.7C942.7,79,933.1,69.4,921.3,69.4z M922.4,124.5c0,0.6-0.5,1-1,1h-15.6c-0.6,0-1-0.5-1-1V90.7
						c0-0.6,0.5-1,1-1h15.6c0.6,0,1,0.5,1,1V124.5z"/>
				</g>
			</g>
			<g>
				<g>
					<path class="st0" d="M760.8,69.4c-5.6,0-10.1,4.5-10.1,10.1v56.1c0,5.6,4.5,10.1,10.1,10.1c5.6,0,10.1-4.5,10.1-10.1V79.6
						C770.9,74,766.4,69.4,760.8,69.4z"/>
				</g>
			</g>
			<g>
				<g>
					<path class="st0" d="M796.1,69.4c-5.6,0-10.1,4.5-10.1,10.1v56.1c0,5.6,4.5,10.1,10.1,10.1c5.6,0,10.1-4.5,10.1-10.1V79.6
						C806.3,74,801.8,69.4,796.1,69.4z"/>
				</g>
			</g>
			<g>
				<g>
					<path class="st0" d="M1063.1,69.4c-5.6,0-10.1,4.5-10.1,10.1v56.1c0,5.6,4.5,10.1,10.1,10.1s10.1-4.5,10.1-10.1V79.6
						C1073.2,74,1068.7,69.4,1063.1,69.4z"/>
				</g>
			</g>
			<g>
				<g>
					<path class="st0" d="M961.9,69.4c-5.6,0-10.1,4.5-10.1,10.1v56.1c0,5.6,4.5,10.1,10.1,10.1c5.6,0,10.1-4.5,10.1-10.1V79.6
						C972,74,967.5,69.4,961.9,69.4z"/>
				</g>
			</g>
			<g>
				<g>
					<path class="st0" d="M1097.1,69.4c-5.6,0-10.1,4.5-10.1,10.1v56.1c0,5.6,4.5,10.1,10.1,10.1c5.6,0,10.1-4.5,10.1-10.1V79.6
						C1107.3,74,1102.8,69.4,1097.1,69.4z"/>
				</g>
			</g>
		</g>
		<g>
			<g>
				<g>
					<path class="st0" d="M943.2,249.8c-5.6,0-10.1,4.5-10.1,10.1v56.1c0,5.6,4.5,10.1,10.1,10.1s10.1-4.5,10.1-10.1V260
						C953.3,254.3,948.8,249.8,943.2,249.8z"/>
				</g>
			</g>
			<g>
				<g>
					<path class="st0" d="M976.9,249.8c-5.6,0-10.1,4.5-10.1,10.1v56.1c0,5.6,4.5,10.1,10.1,10.1c5.6,0,10.1-4.5,10.1-10.1V260
						C987,254.3,982.5,249.8,976.9,249.8z"/>
				</g>
			</g>
		</g>
		<g>
			<g>
				<g>
					<path class="st0" d="M802.5,159.6h-15.6c-11.8,0-21.3,9.6-21.3,21.3v33.8c0,11.8,9.6,21.3,21.3,21.3h15.6
						c11.8,0,21.3-9.6,21.3-21.3v-33.8C823.8,169.2,814.2,159.6,802.5,159.6z M803.5,214.7c0,0.6-0.5,1-1,1h-15.6c-0.6,0-1-0.5-1-1
						v-33.8c0-0.6,0.5-1,1-1h15.6c0.6,0,1,0.5,1,1V214.7L803.5,214.7z"/>
				</g>
			</g>
			<g>
				<g>
					<path class="st0" d="M900.2,159.6h-15.6c-11.8,0-21.3,9.6-21.3,21.3v33.8c0,11.8,9.6,21.3,21.3,21.3h15.6
						c11.8,0,21.3-9.6,21.3-21.3v-33.8C921.5,169.2,912,159.6,900.2,159.6z M901.2,214.7c0,0.6-0.5,1-1,1h-15.6c-0.6,0-1-0.5-1-1
						v-33.8c0-0.6,0.5-1,1-1h15.6c0.6,0,1,0.5,1,1V214.7z"/>
				</g>
			</g>
			<g>
				<g>
					<path class="st0" d="M1045.1,159.6c-5.6,0-10.1,4.5-10.1,10.1v56.1c0,5.6,4.5,10.1,10.1,10.1c5.6,0,10.1-4.5,10.1-10.1v-56.1
						C1055.3,164.2,1050.8,159.6,1045.1,159.6z"/>
				</g>
			</g>
			<g>
				<g>
					<path class="st0" d="M1009.8,159.6c-5.6,0-10.1,4.5-10.1,10.1v56.1c0,5.6,4.5,10.1,10.1,10.1s10.1-4.5,10.1-10.1v-56.1
						C1019.9,164.2,1015.4,159.6,1009.8,159.6z"/>
				</g>
			</g>
			<g>
				<g>
					<path class="st0" d="M742.9,159.6c-5.6,0-10.1,4.5-10.1,10.1v56.1c0,5.6,4.5,10.1,10.1,10.1s10.1-4.5,10.1-10.1v-56.1
						C753,164.2,748.5,159.6,742.9,159.6z"/>
				</g>
			</g>
			<g>
				<g>
					<path class="st0" d="M844,159.6c-5.6,0-10.1,4.5-10.1,10.1v56.1c0,5.6,4.5,10.1,10.1,10.1c5.6,0,10.1-4.5,10.1-10.1v-56.1
						C854.2,164.2,849.7,159.6,844,159.6z"/>
				</g>
			</g>
			<g>
				<g>
					<path class="st0" d="M968.4,159.6h-15.6c-11.8,0-21.3,9.6-21.3,21.3v33.8c0,11.8,9.6,21.3,21.3,21.3h15.6
						c11.8,0,21.3-9.6,21.3-21.3v-33.8C989.7,169.2,980.1,159.6,968.4,159.6z M969.4,214.7c0,0.6-0.5,1-1,1h-15.6c-0.6,0-1-0.5-1-1
						v-33.8c0-0.6,0.5-1,1-1h15.6c0.6,0,1,0.5,1,1V214.7z"/>
				</g>
			</g>
		</g>
	</g>
	<path class="st0" d="M735.7,711.8l100.1-100.1c8.8-8.8,12.5-21.5,10-33.6l99.6-99.6c1.7,0.9,3.5,1.3,5.5,1.3c3.2,0,6.2-1.2,8.5-3.5
		l26.3-26.3c51.9,56.9,91,116.1,110.3,167c0.6,1.6,1.5,3,2.7,4.2l0.1,0.1c4.7,4.6,12.2,4.6,16.9,0c1.1-1.1,2-2.4,2.6-3.9
		c25.5-53.2-4.5-143.4-74.9-225.1c4.4-5.2,6.8-11.7,6.8-18.6c0,0,0,0,0,0c0-7.6-3-14.8-8.4-20.2l-11.8-11.8
		c-10.6-10.6-27.6-11.1-38.8-1.5c-82.2-70.7-172.7-100.7-225.8-74.5c-4.3,2.1-6.9,6.5-6.7,11.3c0.2,4.8,3.3,8.9,7.7,10.6
		c50.9,19.3,110.1,58.4,167,110.3l-26.3,26.3c-3.8,3.8-4.5,9.4-2.2,13.9l-99.6,99.6c-12.1-2.5-24.8,1.3-33.6,10L671.7,647.8
		c-7,7-10.8,16.2-10.8,26.1s3.8,19.2,10.8,26.1l11.8,11.8c7,7,16.2,10.8,26.1,10.8C719.4,722.6,728.7,718.7,735.7,711.8z
		 M709.6,698.7c-3.5,0-6.7-1.4-9.2-3.8l-11.8-11.8c-2.5-2.5-3.8-5.7-3.8-9.2c0-3.5,1.3-6.7,3.8-9.2l100.1-100.1
		c2.5-2.5,5.7-3.8,9.2-3.8c3.5,0,6.7,1.3,9.2,3.8l11.8,11.8c2.5,2.5,3.8,5.9,3.8,9.2c0,3.3-1.3,6.7-3.8,9.2L718.8,694.9
		C716.3,697.3,713,698.7,709.6,698.7z M833.2,556.9l-6.6-6.6l94.9-94.9l6.6,6.6L833.2,556.9z M1010,357.3c1.1,0.1,2.2,0.5,3,1.4
		l11.8,11.8c0.8,0.8,1.3,1.9,1.4,3c-2.6-2.8-5.3-5.5-8-8.2C1015.5,362.6,1012.8,359.9,1010,357.3z M1103.3,574.8
		C1076,520.3,1031.6,461,977,406.5c-54.6-54.6-113.8-99-168.3-126.3c19.1-0.2,41.5,4.7,65.6,14.4c42.5,17.1,87.6,48.2,127,87.6
		c39.4,39.4,70.5,84.5,87.6,127c9.5,23.6,14.4,45.6,14.4,64.5C1103.3,574,1103.3,574.4,1103.3,574.8z M960.1,423.4
		c3,3,6.1,6.1,9.1,9.3L950.9,451l-18.4-18.4l18.3-18.3C953.9,417.3,957,420.4,960.1,423.4z"/>
</g>
</svg>
