<svg id="Capa_1" xmlns="http://www.w3.org/2000/svg" width="1200" height="900" viewBox="0 0 1200 900"><g fill="#F68E4D"><path d="M415.722 310.886h-33.497v-33.497a16.33 16.33 0 0 0-10.952-15.418c-10.218-3.563-20.947-5.371-31.889-5.371s-21.671 1.808-31.89 5.371a16.33 16.33 0 0 0-10.952 15.418v33.497h-33.494a16.331 16.331 0 0 0-15.417 10.95c-3.565 10.216-5.373 20.947-5.373 31.892s1.808 21.675 5.373 31.892a16.328 16.328 0 0 0 15.417 10.947h33.497v33.498a16.33 16.33 0 0 0 10.95 15.416c10.216 3.565 20.947 5.373 31.892 5.373 10.944 0 21.675-1.808 31.891-5.373a16.328 16.328 0 0 0 10.95-15.416v-33.498h33.497a16.333 16.333 0 0 0 15.419-10.949c3.563-10.217 5.371-20.945 5.371-31.89 0-10.942-1.808-21.672-5.371-31.89a16.335 16.335 0 0 0-15.422-10.952zm-12.663 53.023h-37.161c-9.018 0-16.329 7.312-16.329 16.329v37.16a65.516 65.516 0 0 1-20.365 0v-37.16c0-9.018-7.312-16.329-16.329-16.329h-37.161c-.53-3.345-.797-6.745-.797-10.182s.267-6.839.797-10.184h37.161c9.018 0 16.329-7.312 16.329-16.329v-37.159a65.485 65.485 0 0 1 20.365 0v37.159c0 9.018 7.312 16.329 16.329 16.329h37.159c.53 3.345.797 6.745.797 10.184 0 3.437-.267 6.839-.795 10.182zM638.579 319.813h.054c15.361-.018 27.777-12.489 27.74-27.85-.038-15.343-12.488-27.757-27.85-27.738-15.343.037-27.776 12.508-27.737 27.85.034 15.342 12.467 27.738 27.793 27.738z"/><path d="M944.653 339.744c-28.912-31.194-76.099-34.783-109.764-8.338-9.199 7.228-19.933 13.413-31.763 18.49-12.995-75.082-47.105-143.975-99.483-200.454-28.91-31.198-76.095-34.79-109.771-8.345-27.855 21.894-69.542 34.452-114.37 34.452-44.839 0-86.532-12.558-114.389-34.454-33.646-26.441-80.832-22.853-109.767 8.345C187.413 222.738 150 318.161 150 418.131c0 37.458 5.249 74.556 15.603 110.265 7.569 26.096 27.667 46.414 53.759 54.353a80.99 80.99 0 0 0 23.573 3.521c18.592 0 36.796-6.464 51.45-18.749 31.934-26.795 69.131-46.219 108.928-57.115a396.272 396.272 0 0 0-12.299 98.045c0 37.479 5.246 74.573 15.593 110.255 7.569 26.1 27.667 46.421 53.767 54.356a80.93 80.93 0 0 0 23.56 3.518c18.594 0 36.802-6.469 51.45-18.757 51.735-43.406 117.481-67.311 185.124-67.311 67.642 0 133.388 23.904 185.122 67.311 20.846 17.489 48.887 23.185 75.01 15.241 26.1-7.938 46.197-28.257 53.766-54.356 10.348-35.68 15.594-72.775 15.594-110.255 0-99.989-37.412-195.415-105.347-268.709zm-674.96 198.337c-11.025 9.242-25.295 12.126-39.147 7.909-13.826-4.205-24.048-14.521-28.043-28.295-9.344-32.229-14.082-65.729-14.082-99.564 0-90.253 33.776-176.401 95.102-242.57 15.205-16.398 40.075-18.229 57.851-4.259 34.496 27.116 84.843 42.667 138.131 42.667 53.274 0 103.616-15.551 138.104-42.661 17.799-13.974 42.663-12.143 57.858 4.253 48.406 52.199 79.514 116.128 90.597 185.76-13.006 2.649-26.686 4.163-40.721 4.447a27.625 27.625 0 0 0 2.862-12.325c-.038-15.342-12.527-27.758-27.888-27.702-15.342.037-27.738 12.525-27.699 27.887a27.795 27.795 0 0 0 1.063 7.439c-26.299-5.524-49.757-15.678-67.56-29.661-33.66-26.443-80.848-22.858-109.763 8.338-34.885 37.635-61.696 81.118-79.551 128.046-54.018 10.516-104.676 34.681-147.114 70.291zm727.812 169.921c-3.995 13.78-14.216 24.094-28.045 28.299-13.849 4.213-28.116 1.33-39.134-7.916-58.645-49.2-133.16-76.297-209.819-76.297-76.66 0-151.174 27.097-209.817 76.297-11.018 9.244-25.277 12.127-39.138 7.916-13.826-4.205-24.05-14.519-28.044-28.299-9.338-32.202-14.073-65.698-14.073-99.555 0-90.269 33.775-176.42 95.104-242.585 8.354-9.014 19.633-13.62 31.052-13.62 9.348 0 18.792 3.089 26.797 9.379 34.506 27.105 84.85 42.653 138.118 42.653s103.614-15.548 138.118-42.653c17.785-13.972 42.652-12.152 57.849 4.241 61.327 66.167 95.104 152.318 95.104 242.585.002 33.859-4.733 67.353-14.072 99.555z"/><path d="M656.728 501.195H623.23v-33.496c0-6.944-4.394-13.13-10.95-15.418-10.216-3.563-20.945-5.371-31.89-5.371-10.942 0-21.671 1.808-31.89 5.371a16.33 16.33 0 0 0-10.951 15.418v33.498h-33.496a16.33 16.33 0 0 0-15.416 10.95c-3.565 10.216-5.373 20.946-5.373 31.891s1.808 21.676 5.373 31.892a16.328 16.328 0 0 0 15.416 10.95h33.496v33.495a16.33 16.33 0 0 0 10.949 15.417c10.219 3.565 20.949 5.373 31.892 5.373 10.944 0 21.676-1.808 31.892-5.373a16.329 16.329 0 0 0 10.948-15.417V586.88h33.497a16.331 16.331 0 0 0 15.417-10.948c3.563-10.214 5.373-20.945 5.373-31.894 0-10.947-1.808-21.679-5.373-31.893a16.329 16.329 0 0 0-15.416-10.95zm-12.666 53.025h-37.161c-9.018 0-16.329 7.312-16.329 16.329v37.159a65.516 65.516 0 0 1-20.365 0v-37.159c0-9.018-7.312-16.329-16.328-16.329H516.72a65.018 65.018 0 0 1-.798-10.184c0-3.438.268-6.839.798-10.184h37.159c9.017 0 16.328-7.312 16.328-16.328v-37.159a65.516 65.516 0 0 1 20.365 0v37.161c0 9.017 7.312 16.328 16.329 16.328h37.161c.53 3.345.797 6.745.797 10.184 0 3.44-.266 6.837-.797 10.182zM941.422 571.646h.075c15.36-.056 27.757-12.526 27.721-27.888-.056-15.342-12.525-27.757-27.886-27.701-15.344.036-27.758 12.525-27.702 27.868.035 15.324 12.468 27.721 27.792 27.721zM817.979 516.299c-15.343.019-27.776 12.469-27.755 27.83.02 15.342 12.47 27.776 27.83 27.757 15.344-.019 27.776-12.47 27.758-27.812-.022-15.36-12.472-27.793-27.833-27.775zM879.867 577.947h-.481c-15.194.184-27.462 12.544-27.462 27.793 0 15.342 12.45 27.794 27.794 27.794h.371c15.341-.056 27.737-12.563 27.683-27.905-.074-15.36-12.563-27.757-27.905-27.682zM879.589 510.128h.056c15.361-.036 27.776-12.506 27.738-27.85-.036-15.36-12.508-27.776-27.85-27.738-15.358.037-27.774 12.509-27.738 27.85.017 15.324 12.472 27.738 27.794 27.738z"/></g></svg>