<svg xmlns="http://www.w3.org/2000/svg" height="512" id="Layer_1" viewBox="0 0 512 512" width="512"><path fill="#f60" id="rect3" d="M0 0h512v512H0z"/><g id="g5" fill="#a00"><g id="g7"><path d="M364.973 138.615H147.028a8.413 8.413 0 0 0-8.413 8.412v217.945a8.413 8.413 0 0 0 8.413 8.412h217.944a8.412 8.412 0 0 0 8.412-8.412V147.027a8.412 8.412 0 0 0-8.411-8.412zm-8.413 217.944H155.44V155.441h201.12v201.118z" id="path9"/><path d="M182.216 311.119c3.821 0 7.087-2.324 8.503-6.02l10.503-26.322h38.686l10.345 26.438c1.422 3.697 4.61 5.904 8.522 5.904 5.087 0 9.072-3.916 9.072-8.917 0-.921-.247-2.479-.721-3.671l-38.148-96.457c-1.49-3.587-4.74-5.815-8.482-5.815-3.812 0-6.771 2.065-8.351 5.872l-38.085 96.295c-.562 1.234-.764 2.787-.764 3.776 0 4.917 4.003 8.917 8.92 8.917zm25.099-49.24l13.194-34.219 13.306 34.219h-26.5z" id="path11"/><path d="M306.892 311.9c16.283 0 25.282-8.167 26.925-9.807.902-.902 2.774-2.778 2.774-6.142 0-4.487-3.65-8.136-8.138-8.136-2.305 0-3.641.761-4.979 1.658-4.042 3.034-8.653 5.996-16.583 5.996-11.376 0-18.584-6.75-19.802-18.256h41.83c9.859 0 9.859-9.533 9.859-13.604 0-15.718-8.76-34.071-33.449-34.071-22.411 0-35.79 15.365-35.79 41.103.001 26.607 13.265 41.259 37.353 41.259zm-1.562-66.089c6.508 0 14.997 1.691 16.238 15.443h-34.206c1.396-7.74 5.835-15.443 17.968-15.443z" id="path13"/></g></g></svg>