<?xml version="1.0" ?><!DOCTYPE svg  PUBLIC '-//W3C//DTD SVG 1.1//EN'  'http://www.w3.org/Graphics/SVG/1.1/DTD/svg11.dtd'><svg enable-background="new 0 0 512 512" height="512px" id="Layer_1" version="1.1" viewBox="0 0 512 512" width="512px" xml:space="preserve" xmlns="http://www.w3.org/2000/svg" xmlns:xlink="http://www.w3.org/1999/xlink"><rect fill="#37345F" height="512" width="512"/><g><g><path d="M364.973,138.615H147.028c-4.646,0-8.413,3.767-8.413,8.412v217.945c0,4.646,3.768,8.412,8.413,8.412    h217.944c4.645,0,8.412-3.766,8.412-8.412V147.027C373.385,142.382,369.617,138.615,364.973,138.615z M356.56,356.559h-201.12    V155.441h201.12V356.559z" fill="#DC99FF"/><path d="M182.216,311.119c3.821,0,7.087-2.324,8.503-6.02l10.503-26.322h38.686l10.345,26.438    c1.422,3.697,4.61,5.904,8.522,5.904c5.087,0,9.072-3.916,9.072-8.917c0-0.921-0.247-2.479-0.721-3.671l-38.148-96.457    c-1.49-3.587-4.74-5.815-8.482-5.815c-3.812,0-6.771,2.065-8.351,5.872l-38.085,96.295c-0.562,1.234-0.764,2.787-0.764,3.776    C173.296,307.119,177.299,311.119,182.216,311.119z M207.315,261.879l13.194-34.219l13.306,34.219H207.315z" fill="#DC99FF"/><path d="M306.892,311.9c16.283,0,25.282-8.167,26.925-9.807c0.902-0.902,2.774-2.778,2.774-6.142    c0-4.487-3.65-8.136-8.138-8.136c-2.305,0-3.641,0.761-4.979,1.658c-4.042,3.034-8.653,5.996-16.583,5.996    c-11.376,0-18.584-6.75-19.802-18.256h41.83c9.859,0,9.859-9.533,9.859-13.604c0-15.718-8.76-34.071-33.449-34.071    c-22.411,0-35.79,15.365-35.79,41.103C269.54,297.248,282.804,311.9,306.892,311.9z M305.33,245.811    c6.508,0,14.997,1.691,16.238,15.443h-34.206C288.758,253.514,293.197,245.811,305.33,245.811z" fill="#DC99FF"/></g></g></svg>