<?xml version="1.0" encoding="utf-8"?>
<!-- Generator: Adobe Illustrator 16.0.0, SVG Export Plug-In . SVG Version: 6.00 Build 0)  -->
<!DOCTYPE svg PUBLIC "-//W3C//DTD SVG 1.1//EN" "http://www.w3.org/Graphics/SVG/1.1/DTD/svg11.dtd">
<svg version="1.1" id="Capa_1" xmlns="http://www.w3.org/2000/svg" xmlns:xlink="http://www.w3.org/1999/xlink" x="0px" y="0px"
	 width="1200px" height="900px" viewBox="0 0 1200 900" enable-background="new 0 0 1200 900" xml:space="preserve">
<g>
	<path fill="#F68E4D" d="M1031.633,352.583h-86.438V151.531c0-10.143-8.226-18.368-18.368-18.368H168.367
		c-10.144,0-18.367,8.225-18.367,18.368v508.318c0,10.143,8.223,18.367,18.367,18.367h313.481v51.886h-41.645
		c-10.145,0-18.367,8.226-18.367,18.368c0,10.144,8.223,18.367,18.367,18.367h226.939c10.145,0,18.367-8.224,18.367-18.367
		c0-10.143-8.223-18.368-18.367-18.368h-41.643v-51.886h105.558v70.254c0,10.144,8.225,18.367,18.367,18.367h282.207
		c10.143,0,18.367-8.224,18.367-18.367V370.95C1050,360.807,1041.775,352.583,1031.633,352.583z M1013.266,641.481H767.793V389.318
		h245.473V641.481z M908.459,169.898v182.685H749.424c-10.143,0-18.367,8.224-18.367,18.367v128.656H186.735V169.898H908.459z
		 M588.767,730.102h-70.184v-51.886h70.184V730.102z M186.735,641.481V536.341h544.324v105.141H186.735z M767.793,730.102v-51.886
		h245.473v51.886H767.793z"/>
	<circle fill="#F68E4D" cx="890.529" cy="704.158" r="12.273"/>
	<circle fill="#F68E4D" cx="547.598" cy="585.153" r="15.342"/>
</g>
</svg>
