<?xml version="1.0" encoding="utf-8"?>
<!-- Generator: Adobe Illustrator 16.0.0, SVG Export Plug-In . SVG Version: 6.00 Build 0)  -->
<!DOCTYPE svg PUBLIC "-//W3C//DTD SVG 1.1//EN" "http://www.w3.org/Graphics/SVG/1.1/DTD/svg11.dtd">
<svg version="1.1" id="Capa_1" xmlns="http://www.w3.org/2000/svg" xmlns:xlink="http://www.w3.org/1999/xlink" x="0px" y="0px"
	 width="1200px" height="900px" viewBox="0 0 1200 900" enable-background="new 0 0 1200 900" xml:space="preserve">
<g>
	<path fill="#F68E4D" d="M415.722,310.886h-33.497v-33.497c0-6.945-4.394-13.13-10.952-15.418
		c-10.218-3.563-20.947-5.371-31.889-5.371s-21.671,1.808-31.89,5.371c-6.559,2.288-10.952,8.474-10.952,15.418v33.497h-33.494
		c-6.945,0-13.128,4.394-15.417,10.95c-3.565,10.216-5.373,20.947-5.373,31.892s1.808,21.675,5.373,31.892
		c2.288,6.557,8.474,10.947,15.417,10.947h33.497v33.498c0,6.944,4.394,13.128,10.95,15.416c10.216,3.565,20.947,5.373,31.892,5.373
		c10.944,0,21.675-1.808,31.891-5.373c6.557-2.288,10.95-8.472,10.95-15.416v-33.498h33.497c6.944,0,13.131-4.393,15.419-10.949
		c3.563-10.217,5.371-20.945,5.371-31.89c0-10.942-1.808-21.672-5.371-31.89C428.853,315.279,422.669,310.886,415.722,310.886z
		 M403.059,363.909h-37.161c-9.018,0-16.329,7.312-16.329,16.329v37.16c-6.687,1.062-13.678,1.061-20.365,0v-37.16
		c0-9.018-7.312-16.329-16.329-16.329h-37.161c-0.53-3.345-0.797-6.745-0.797-10.182s0.267-6.839,0.797-10.184h37.161
		c9.018,0,16.329-7.312,16.329-16.329v-37.159c6.689-1.062,13.678-1.062,20.365,0v37.159c0,9.018,7.312,16.329,16.329,16.329h37.159
		c0.53,3.345,0.797,6.745,0.797,10.184C403.854,357.164,403.587,360.566,403.059,363.909z"/>
	<path fill="#F68E4D" d="M638.579,319.813c0.018,0,0.037,0,0.054,0c15.361-0.018,27.777-12.489,27.74-27.85
		c-0.038-15.343-12.488-27.757-27.85-27.738c-15.343,0.037-27.776,12.508-27.737,27.85
		C610.82,307.417,623.253,319.813,638.579,319.813z"/>
	<path fill="#F68E4D" d="M944.653,339.744c-28.912-31.194-76.099-34.783-109.764-8.338c-9.199,7.228-19.933,13.413-31.763,18.49
		c-12.995-75.082-47.105-143.975-99.483-200.454c-28.91-31.198-76.095-34.79-109.771-8.345
		c-27.855,21.894-69.542,34.452-114.37,34.452c-44.839,0-86.532-12.558-114.389-34.454c-33.646-26.441-80.832-22.853-109.767,8.345
		C187.413,222.738,150,318.161,150,418.131c0,37.458,5.249,74.556,15.603,110.265c7.569,26.096,27.667,46.414,53.759,54.353
		c7.769,2.362,15.705,3.521,23.573,3.521c18.592,0,36.796-6.464,51.45-18.749c31.934-26.795,69.131-46.219,108.928-57.115
		c-8.1,31.738-12.299,64.634-12.299,98.045c0,37.479,5.246,74.573,15.593,110.255c7.569,26.1,27.667,46.421,53.767,54.356
		c7.765,2.361,15.695,3.518,23.56,3.518c18.594,0,36.802-6.469,51.45-18.757c51.735-43.406,117.481-67.311,185.124-67.311
		c67.642,0,133.388,23.904,185.122,67.311c20.846,17.489,48.887,23.185,75.01,15.241c26.1-7.938,46.197-28.257,53.766-54.356
		c10.348-35.68,15.594-72.775,15.594-110.255C1050,508.464,1012.588,413.038,944.653,339.744z M269.693,538.081
		c-11.025,9.242-25.295,12.126-39.147,7.909c-13.826-4.205-24.048-14.521-28.043-28.295c-9.344-32.229-14.082-65.729-14.082-99.564
		c0-90.253,33.776-176.401,95.102-242.57c15.205-16.398,40.075-18.229,57.851-4.259c34.496,27.116,84.843,42.667,138.131,42.667
		c53.274,0,103.616-15.551,138.104-42.661c17.799-13.974,42.663-12.143,57.858,4.253c48.406,52.199,79.514,116.128,90.597,185.76
		c-13.006,2.649-26.686,4.163-40.721,4.447c1.829-3.721,2.878-7.896,2.862-12.325c-0.038-15.342-12.527-27.758-27.888-27.702
		c-15.342,0.037-27.738,12.525-27.699,27.887c0.009,2.581,0.397,5.069,1.063,7.439c-26.299-5.524-49.757-15.678-67.56-29.661
		c-33.66-26.443-80.848-22.858-109.763,8.338c-34.885,37.635-61.696,81.118-79.551,128.046
		C362.789,478.306,312.131,502.471,269.693,538.081z M997.505,708.002c-3.995,13.78-14.216,24.094-28.045,28.299
		c-13.849,4.213-28.116,1.33-39.134-7.916c-58.645-49.2-133.16-76.297-209.819-76.297c-76.66,0-151.174,27.097-209.817,76.297
		c-11.018,9.244-25.277,12.127-39.138,7.916c-13.826-4.205-24.05-14.519-28.044-28.299c-9.338-32.202-14.073-65.698-14.073-99.555
		c0-90.269,33.775-176.42,95.104-242.585c8.354-9.014,19.633-13.62,31.052-13.62c9.348,0,18.792,3.089,26.797,9.379
		c34.506,27.105,84.85,42.653,138.118,42.653s103.614-15.548,138.118-42.653c17.785-13.972,42.652-12.152,57.849,4.241
		c61.327,66.167,95.104,152.318,95.104,242.585C1011.579,642.306,1006.844,675.8,997.505,708.002z"/>
	<path fill="#F68E4D" d="M656.728,501.195H623.23v-33.496c0-6.944-4.394-13.13-10.95-15.418c-10.216-3.563-20.945-5.371-31.89-5.371
		c-10.942,0-21.671,1.808-31.89,5.371c-6.558,2.288-10.951,8.474-10.951,15.418v33.498h-33.496c-6.944,0-13.128,4.394-15.416,10.95
		c-3.565,10.216-5.373,20.946-5.373,31.891s1.808,21.676,5.373,31.892c2.288,6.557,8.472,10.95,15.416,10.95h33.496v33.495
		c0,6.945,4.394,13.129,10.949,15.417c10.219,3.565,20.949,5.373,31.892,5.373c10.944,0,21.676-1.808,31.892-5.373
		c6.557-2.288,10.948-8.474,10.948-15.417V586.88h33.497c6.942,0,13.129-4.392,15.417-10.948
		c3.563-10.214,5.373-20.945,5.373-31.894c0-10.947-1.808-21.679-5.373-31.893C669.856,505.587,663.67,501.195,656.728,501.195z
		 M644.062,554.22h-37.161c-9.018,0-16.329,7.312-16.329,16.329v37.159c-6.688,1.062-13.678,1.061-20.365,0v-37.159
		c0-9.018-7.312-16.329-16.328-16.329H516.72c-0.53-3.345-0.798-6.744-0.798-10.184c0-3.438,0.268-6.839,0.798-10.184h37.159
		c9.017,0,16.328-7.312,16.328-16.328v-37.159c6.689-1.062,13.678-1.061,20.365,0v37.161c0,9.017,7.312,16.328,16.329,16.328h37.161
		c0.53,3.345,0.797,6.745,0.797,10.184C644.859,547.478,644.593,550.875,644.062,554.22z"/>
	<path fill="#F68E4D" d="M941.422,571.646c0.02,0,0.056,0,0.075,0c15.36-0.056,27.757-12.526,27.721-27.888
		c-0.056-15.342-12.525-27.757-27.886-27.701c-15.344,0.036-27.758,12.525-27.702,27.868
		C913.665,559.249,926.098,571.646,941.422,571.646z"/>
	<path fill="#F68E4D" d="M817.979,516.299c-15.343,0.019-27.776,12.469-27.755,27.83c0.02,15.342,12.47,27.776,27.83,27.757
		c15.344-0.019,27.776-12.47,27.758-27.812C845.79,528.714,833.34,516.281,817.979,516.299z"/>
	<path fill="#F68E4D" d="M879.867,577.947c-0.167,0-0.314,0-0.481,0c-15.194,0.184-27.462,12.544-27.462,27.793
		c0,15.342,12.45,27.794,27.794,27.794c0.036,0,0.075,0,0.092,0c0.056,0,0.112,0,0.167,0c0.039,0,0.075,0,0.112,0
		c15.341-0.056,27.737-12.563,27.683-27.905C907.698,590.269,895.209,577.872,879.867,577.947z"/>
	<path fill="#F68E4D" d="M879.589,510.128c0.018,0,0.038,0,0.056,0c15.361-0.036,27.776-12.506,27.738-27.85
		c-0.036-15.36-12.508-27.776-27.85-27.738c-15.358,0.037-27.774,12.509-27.738,27.85
		C851.812,497.714,864.267,510.128,879.589,510.128z"/>
</g>
</svg>
