<?xml version="1.0" encoding="utf-8"?>
<!-- Generator: Adobe Illustrator 16.0.0, SVG Export Plug-In . SVG Version: 6.00 Build 0)  -->
<!DOCTYPE svg PUBLIC "-//W3C//DTD SVG 1.1//EN" "http://www.w3.org/Graphics/SVG/1.1/DTD/svg11.dtd">
<svg version="1.1" id="Layer_1" xmlns="http://www.w3.org/2000/svg" xmlns:xlink="http://www.w3.org/1999/xlink" x="0px" y="0px"
	 width="1200px" height="900px" viewBox="0 0 1200 900" enable-background="new 0 0 1200 900" xml:space="preserve">
<g>
	<path fill="#F68E4D" d="M978.191,435.639H830.686c-1.17-71.69-11.072-140.967-28.285-202.393h96.736
		c7.934,0,14.362-6.428,14.362-14.362s-6.429-14.362-14.362-14.362H793.604c-15.354-46.273-35.073-87.167-58.506-119.979
		c-4.611-6.455-13.582-7.953-20.033-3.341c-6.455,4.609-7.951,13.58-3.342,20.034c20.332,28.47,37.7,63.572,51.635,103.287H614.361
		V71.809c0-7.934-6.428-14.362-14.361-14.362s-14.361,6.428-14.361,14.362v132.713H436.641
		c13.935-39.715,31.303-74.817,51.635-103.287c4.609-6.454,3.113-15.425-3.342-20.034c-6.457-4.609-15.424-3.112-20.033,3.341
		c-23.433,32.812-43.152,73.708-58.506,119.979H300.861c-7.934,0-14.362,6.428-14.362,14.362s6.428,14.362,14.362,14.362h96.736
		c-17.211,61.426-27.113,130.703-28.285,202.393H221.809c-7.934,0-14.362,6.428-14.362,14.361s6.428,14.361,14.362,14.361h147.506
		c1.17,71.69,11.072,140.967,28.285,202.394h-96.738c-7.934,0-14.362,6.428-14.362,14.361s6.428,14.361,14.362,14.361h105.533
		c15.355,46.281,35.081,87.184,58.52,119.999c2.803,3.924,7.219,6.017,11.7,6.017c2.888,0,5.804-0.869,8.335-2.675
		c6.453-4.611,7.949-13.581,3.34-20.036c-20.338-28.473-37.71-63.582-51.648-103.303h148.998v132.712
		c0,7.934,6.428,14.361,14.361,14.361s14.361-6.428,14.361-14.361V695.478h148.998c-13.937,39.723-31.311,74.83-51.648,103.303
		c-4.609,6.455-3.113,15.425,3.34,20.036c2.529,1.806,5.445,2.675,8.335,2.675c4.483,0,8.897-2.093,11.7-6.017
		c23.438-32.815,43.162-73.718,58.52-119.999h105.533c7.934,0,14.362-6.428,14.362-14.361s-6.429-14.361-14.362-14.361H802.4
		c17.213-61.427,27.115-130.703,28.285-202.394h147.506c7.934,0,14.361-6.428,14.361-14.361S986.125,435.639,978.191,435.639z
		 M772.608,233.246c17.833,60.669,28.14,130.132,29.348,202.393H614.361V233.246H772.608z M427.392,233.246h158.247v202.393H398.044
		C399.254,363.376,409.559,293.915,427.392,233.246z M427.392,666.755c-17.833-60.67-28.14-130.133-29.348-202.394h187.595v202.394
		H427.392z M772.608,666.755H614.361V464.361h187.595C800.746,536.624,790.441,606.087,772.608,666.755z"/>
	<path fill="#F68E4D" d="M918.198,131.802C833.203,46.808,720.2,0,600,0S366.797,46.808,281.802,131.802S150,329.8,150,450.002
		c0,88.604,25.643,174.062,74.229,247.626l-54.992,164.965c-1.719,5.16-0.377,10.852,3.47,14.698
		c3.847,3.846,9.534,5.186,14.698,3.47l164.968-54.987C425.94,874.357,511.396,900,600,900c120.2,0,233.203-46.808,318.197-131.802
		C1003.192,683.203,1050,570.2,1050,450.002C1050,329.8,1003.192,216.797,918.198,131.802z M600,871.276
		c-85.195,0-167.275-25.318-237.372-73.216c-2.417-1.65-5.245-2.505-8.102-2.505c-1.526,0-3.06,0.243-4.542,0.737L205.57,844.428
		l48.14-144.41c1.419-4.26,0.764-8.938-1.767-12.646c-47.901-70.093-73.22-152.175-73.22-237.37
		c0-232.294,188.982-421.278,421.276-421.278s421.276,188.984,421.276,421.278C1021.276,682.294,832.294,871.276,600,871.276z"/>
</g>
</svg>
